HIERARCHY
ROOT hip
{
	OFFSET 0.000000 0.000000 0.000000 
	CHANNELS 6 Xposition Yposition Zposition Xrotation Zrotation Yrotation
	JOINT abdomen
	{
		OFFSET 0.000000 3.402643 0.000000 
		CHANNELS 3 Xrotation Zrotation Yrotation
		JOINT chest
		{
			OFFSET 0.000000 8.438565 -0.680529 
			CHANNELS 3 Xrotation Zrotation Yrotation
			JOINT neck
			{
				OFFSET 0.000000 10.207942 -0.272212 
				CHANNELS 3 Xrotation Zrotation Yrotation
				JOINT head
				{
					OFFSET 0.000000 3.130431 0.000000 
					CHANNELS 3 Xrotation Zrotation Yrotation
					End Site
					{
						OFFSET 0.000000 3.130435 0.000000 
					}
				}
			}
			JOINT lCollar
			{
				OFFSET 3.470700 6.669187 -0.816635 
				CHANNELS 3 Yrotation Zrotation Xrotation
				JOINT lShldr
				{
					OFFSET 3.198488 0.000000 0.000000 
					CHANNELS 3 Zrotation Yrotation Xrotation
					JOINT lForeArm
					{
						OFFSET 10.139888 0.000000 0.000000 
						CHANNELS 3 Yrotation Zrotation Xrotation
						JOINT lHand
						{
							OFFSET 8.370511 0.000000 0.000000 
							CHANNELS 3 Zrotation Yrotation Xrotation
							End Site
							{
								OFFSET 4.083176 0.000000 0.000000 
							}
						}
					}
				}
			}
			JOINT rCollar
			{
				OFFSET -3.470700 6.669187 -0.816635 
				CHANNELS 3 Yrotation Zrotation Xrotation
				JOINT rShldr
				{
					OFFSET -3.198488 0.000000 0.000000 
					CHANNELS 3 Zrotation Yrotation Xrotation
					JOINT rForeArm
					{
						OFFSET -10.139888 0.000000 0.000000 
						CHANNELS 3 Yrotation Zrotation Xrotation
						JOINT rHand
						{
							OFFSET -8.370511 0.000000 0.000000 
							CHANNELS 3 Zrotation Yrotation Xrotation
							End Site
							{
								OFFSET -4.083176 0.000000 0.000000 
							}
						}
					}
				}
			}
		}
	}
	JOINT lThigh
	{
		OFFSET 5.308129 -1.633274 1.361059 
		CHANNELS 3 Xrotation Zrotation Yrotation
		JOINT lShin
		{
			OFFSET -2.041588 -20.007561 0.000000 
			CHANNELS 3 Xrotation Zrotation Yrotation
			JOINT lFoot
			{
				OFFSET 0.000000 -19.190928 -1.224953 
				CHANNELS 3 Xrotation Yrotation Zrotation
				End Site
				{
					OFFSET 0.000000 -2.449906 4.627600 
				}
			}
		}
	}
	JOINT rThigh
	{
		OFFSET -5.308129 -1.633274 1.361059 
		CHANNELS 3 Xrotation Zrotation Yrotation
		JOINT rShin
		{
			OFFSET 2.041588 -20.007561 0.000000 
			CHANNELS 3 Xrotation Zrotation Yrotation
			JOINT rFoot
			{
				OFFSET 0.000000 -19.190928 -1.224953 
				CHANNELS 3 Xrotation Yrotation Zrotation
				End Site
				{
					OFFSET 0.000000 -2.449906 4.627600 
				}
			}
		}
	}
}
MOTION
Frames: 16
Frame Time: 0.033333
64.717026 41.987053 -27.767982 -1.311389 23.656593 -162.458755 23.056742 9.516428 -6.317658 -20.839844 0.000000 0.000000 2.229844 0.623505 27.119181 -2.520860 -1.255023 0.218345 -4.754609 -0.109182 -0.002653 -59.682663 -31.218534 22.041807 -62.021313 -39.621284 36.998592 -0.762474 5.741033 25.756290 4.754609 0.109182 -0.002672 85.852455 5.721983 -8.582521 7.295987 -0.285268 20.425182 3.765151 15.046910 38.939156 -29.124367 17.737371 15.118646 72.259743 -15.348222 12.126582 17.790625 16.799850 -12.127311 -21.142208 -0.557030 -19.444233 45.362873 25.989166 -5.407391 -25.481813 17.419180 -3.973757 
64.839935 41.963188 -27.715202 -1.034428 23.687971 -162.413956 23.155201 9.629612 -6.564945 -20.839844 0.000000 0.000000 2.923509 0.957627 27.085533 -2.520860 -1.255023 0.218345 -4.754609 -0.109182 -0.002653 -58.920742 -31.380716 21.617456 -61.628769 -39.405167 36.908138 -0.770775 5.594962 25.314297 4.754609 0.109182 -0.002672 87.509483 -1.630310 -8.531857 28.549358 -0.744006 22.688925 6.959072 9.389916 35.309044 -28.994246 17.851860 15.128884 72.378395 -15.307361 12.192629 17.327761 17.004086 -12.255895 -20.950180 -0.378542 -19.491426 45.441551 26.175686 -5.441351 -25.618582 17.593033 -4.179578 
64.952339 41.940338 -27.670525 -0.746668 23.718910 -162.417709 23.224045 9.740598 -6.806203 -20.839844 0.000000 0.000000 3.773931 1.437609 27.063393 -2.520860 -1.255023 0.218345 -4.754609 -0.109182 -0.002653 -58.243835 -31.436136 21.231972 -61.315754 -39.250599 36.840599 -0.712711 5.482379 24.960407 4.754609 0.109182 -0.002672 87.916451 -5.115967 -8.687922 43.077797 0.697444 23.379902 8.544307 7.118237 33.487545 -28.793848 17.963425 15.157749 72.473839 -15.260055 12.191540 16.653761 17.185858 -11.852727 -20.857601 -0.116775 -19.418621 45.564693 26.219524 -5.445838 -25.789036 17.554331 -4.294776 
65.057732 41.914452 -27.640068 -0.469372 23.729759 -162.503098 23.240597 9.773708 -7.035290 -20.839844 0.000000 0.000000 4.762282 2.085235 26.995752 -2.520860 -1.255023 0.218345 -4.754609 -0.109182 -0.002653 -57.698742 -31.315762 20.909662 -61.093193 -39.174389 36.785912 -0.738890 5.528167 24.675842 4.754609 0.109182 -0.002672 87.598381 -7.285944 -8.395901 55.832691 2.983846 23.580372 9.198494 5.979807 32.206081 -28.649410 18.112181 15.193757 72.673401 -15.198580 12.192966 16.218473 17.358192 -11.504098 -20.827747 0.156924 -19.234241 45.746326 26.167559 -5.427801 -25.914385 17.429356 -4.404702 
65.152107 41.905815 -27.608086 -0.224069 23.759605 -162.654922 23.204794 9.716528 -7.243491 -20.839844 0.000000 0.000000 5.860401 2.890582 26.864399 -2.520860 -1.255023 0.218345 -4.754609 -0.109182 -0.002653 -57.207092 -31.029980 20.629753 -60.977772 -39.195869 36.786953 -0.870002 5.590981 24.538282 4.754609 0.109182 -0.002672 86.579811 -8.667221 -7.665620 68.059013 5.815299 22.803167 9.413594 5.174889 30.693726 -28.500555 18.363258 15.306553 72.838501 -15.188479 12.195425 15.985597 17.477983 -11.460261 -20.691233 0.410768 -19.127680 45.766205 26.177622 -5.446568 -25.956980 17.414658 -4.513000 
65.234245 41.912926 -27.568977 -0.021343 23.779297 -162.878967 23.117012 9.568890 -7.433698 -20.839844 0.000000 0.000000 7.001276 3.812545 26.682123 -2.520860 -1.255023 0.218345 -4.754609 -0.109182 -0.002653 -56.722610 -30.607601 20.326332 -61.066570 -39.287338 36.717133 -1.075984 5.538053 24.479214 4.754609 0.109182 -0.002672 84.813911 -9.182304 -6.416698 80.079124 9.222128 20.514139 9.044082 4.494286 28.449009 -28.315117 18.626913 15.432401 72.926849 -15.237581 12.176287 15.708021 17.529558 -11.327411 -20.395714 0.596634 -19.147432 45.620003 26.304823 -5.459270 -25.813841 17.677076 -4.712784 
65.306839 41.924095 -27.527855 0.149436 23.808523 -163.140045 23.035149 9.341814 -7.635942 -20.839844 0.000000 0.000000 8.117709 4.800906 26.456547 -2.520860 -1.255023 0.218345 -4.754609 -0.109182 -0.002653 -56.270962 -30.096418 20.006918 -61.182705 -39.346317 36.563053 -1.286976 5.449918 24.332203 4.754609 0.109182 -0.002672 82.252396 -8.533785 -4.674179 91.803253 12.512766 16.798717 8.010924 3.948429 25.822735 -28.148529 18.792273 15.516632 72.937546 -15.247602 12.205812 15.443499 17.581331 -11.104606 -20.128908 0.793206 -19.159657 45.469006 26.389135 -5.430125 -25.659863 18.006079 -4.895212 
65.366394 41.938309 -27.488762 0.277586 23.837645 -163.391403 22.930479 9.073683 -7.865658 -20.839844 0.000000 0.000000 9.171225 5.805348 26.206413 -2.520860 -1.255023 0.218345 -4.754609 -0.109182 -0.002653 -55.850918 -29.582577 19.701260 -61.289589 -39.398376 36.362347 -1.380647 5.459631 24.125851 4.754609 0.109182 -0.002672 79.099976 -6.435527 -2.608959 102.643456 14.688493 12.213979 6.612836 3.561205 23.176512 -28.061523 18.900682 15.535811 72.950386 -15.210442 12.218919 15.207464 17.654703 -10.979745 -20.034906 1.055655 -19.035444 45.359333 26.316725 -5.430803 -25.564011 18.071960 -5.004772 
65.408279 41.951004 -27.455772 0.363052 23.856997 -163.619431 22.814243 8.769457 -8.111760 -20.839844 0.000000 0.000000 10.151189 6.748405 25.923891 -2.520860 -1.255023 0.218345 -4.754609 -0.109182 -0.002653 -55.408562 -29.116180 19.421871 -61.387581 -39.484726 36.212559 -1.300245 5.611802 23.949688 4.754609 0.109182 -0.002672 75.699028 -2.887965 -0.457903 111.863640 16.079718 7.381580 5.127070 3.277135 20.453293 -28.022093 18.909971 15.509218 72.935982 -15.139590 12.243931 15.059515 17.759285 -10.928297 -20.007044 1.270111 -18.881578 45.299992 26.218451 -5.450766 -25.603298 17.990557 -5.030431 
65.434685 41.955574 -27.431389 0.416441 23.856863 -163.794998 22.660967 8.455673 -8.332343 -20.839844 0.000000 0.000000 11.017446 7.623204 25.576912 -2.520860 -1.255023 0.218345 -4.754609 -0.109182 -0.002653 -55.008656 -28.729551 19.223223 -61.423992 -39.603409 36.194187 -1.299424 5.692329 23.891130 4.754609 0.109182 -0.002672 72.334366 1.788427 1.513531 119.617210 16.601452 2.472322 3.660795 2.771416 17.250923 -28.041002 18.840960 15.432195 72.991783 -15.045479 12.231001 14.910255 17.775032 -11.076083 -19.961872 1.359754 -18.829266 45.299248 26.217865 -5.421859 -25.657173 18.034798 -5.059559 
65.447777 41.954056 -27.415657 0.437797 23.856802 -163.914063 22.512321 8.154475 -8.502229 -20.839844 0.000000 0.000000 11.709952 8.444578 25.110645 -2.520860 -1.255023 0.218345 -4.754609 -0.109182 -0.002653 -54.748207 -28.480097 19.132084 -61.264256 -39.688332 36.396183 -1.371189 5.647403 23.959930 4.754609 0.109182 -0.002672 69.164383 7.103585 3.116097 125.797180 16.539474 -2.141711 2.356507 1.974909 13.689248 -28.119802 18.763664 15.292582 73.067482 -14.936808 12.162601 14.932993 17.719563 -11.345896 -19.899723 1.358027 -18.892420 45.295052 26.273350 -5.388114 -25.621742 18.162006 -5.129794 
65.448746 41.956589 -27.404503 0.459187 23.866507 -163.941193 22.390985 7.882197 -8.583285 -20.839844 0.000000 0.000000 12.140153 9.276615 24.484888 -2.520860 -1.255023 0.218345 -4.754609 -0.109182 -0.002653 -54.648869 -28.412861 19.160528 -61.014912 -39.742065 36.624065 -1.436319 5.584929 23.978937 4.754609 0.109182 -0.002672 66.267235 12.620866 4.261386 130.323013 16.193899 -5.841471 0.990596 1.154540 10.525018 -28.187323 18.684654 15.153952 73.111977 -14.797794 12.038068 14.991789 17.629738 -11.233082 -19.881611 1.386986 -18.865095 45.258236 26.274988 -5.400250 -25.549314 18.175594 -5.154469 
65.441887 41.968765 -27.392311 0.501940 23.876139 -163.876480 22.356073 7.659027 -8.571372 -20.839844 0.000000 0.000000 12.208036 10.144115 23.695583 -2.520860 -1.255023 0.218345 -4.754609 -0.109182 -0.002653 -54.685757 -28.521418 19.283117 -60.761391 -39.815643 36.803394 -1.450859 5.585151 23.930340 4.754609 0.109182 -0.002672 63.604736 17.947498 4.990814 133.341400 15.805941 -8.311794 -0.482068 0.508089 8.310395 -28.199774 18.590139 15.064549 73.049576 -14.722968 11.924938 14.870529 17.510645 -10.852923 -19.967934 1.523700 -18.711386 45.198959 26.108513 -5.486709 -25.528475 17.932035 -5.057376 
65.431175 41.985527 -27.377586 0.566060 23.885683 -163.735489 22.397778 7.482169 -8.461592 -20.839844 0.000000 0.000000 11.969487 11.017616 22.769545 -2.520860 -1.255023 0.218345 -4.754609 -0.109182 -0.002653 -54.810200 -28.754539 19.514456 -60.579857 -39.943684 36.986874 -1.354984 5.602980 23.930599 4.754609 0.109182 -0.002672 61.119114 22.859489 5.293791 135.238159 15.452861 -9.865324 -1.843808 -0.163968 6.829620 -28.112219 18.561115 15.060011 72.937889 -14.700954 11.900793 14.752825 17.449633 -10.713034 -20.083982 1.651272 -18.530302 45.149189 25.922077 -5.568367 -25.554445 17.602808 -4.955256 
65.415443 41.999741 -27.366936 0.651452 23.875582 -163.524216 22.483208 7.335719 -8.293284 -20.839844 0.000000 0.000000 11.518243 11.815151 21.768200 -2.520860 -1.255023 0.218345 -4.754609 -0.109182 -0.002653 -54.988590 -29.063889 19.793980 -60.429394 -40.089931 37.215870 -1.211895 5.575840 24.018158 4.754609 0.109182 -0.002672 58.832359 27.239380 5.311149 136.298828 15.205282 -10.983453 -2.952085 -0.984179 5.569534 -27.986078 18.581570 15.108873 72.874168 -14.742565 11.916478 14.730001 17.404898 -10.721991 -20.127096 1.679172 -18.440243 45.119019 25.842596 -5.658854 -25.531023 17.362999 -4.866605 
65.393707 42.008377 -27.362862 0.726044 23.845957 -163.287872 22.579708 7.216115 -8.113457 -20.839844 0.000000 0.000000 11.010240 12.491632 20.719019 -2.520860 -1.255023 0.218345 -4.754609 -0.109182 -0.002653 -55.268471 -29.425100 20.119726 -60.105835 -40.141212 37.699787 -1.074171 5.334335 24.351566 4.754609 0.109182 -0.002672 56.803303 31.106573 5.158735 136.800812 15.063163 -12.054796 -3.716579 -1.965904 4.089492 -27.868690 18.620422 15.182126 72.808678 -14.797412 11.882661 14.830965 17.357368 -10.643478 -20.025818 1.612177 -18.521885 45.007069 25.857500 -5.756848 -25.487858 17.339348 -4.810757 
